<svg xmlns="http://www.w3.org/2000/svg" xmlns:xlink="http://www.w3.org/1999/xlink" width="1200" zoomAndPan="magnify" viewBox="0 0 900 472.499986" height="630" preserveAspectRatio="xMidYMid meet" version="1.0"><defs><filter x="0%" y="0%" width="100%" height="100%" id="6bcb0dff2f"><feColorMatrix values="0 0 0 0 1 0 0 0 0 1 0 0 0 0 1 0 0 0 1 0" color-interpolation-filters="sRGB"/></filter><g/><clipPath id="255e30a33d"><path d="M 0.476562 0 L 899.523438 0 L 899.523438 472 L 0.476562 472 Z M 0.476562 0" clip-rule="nonzero"/></clipPath><clipPath id="d9f97e994f"><path d="M 425 6 L 899.523438 6 L 899.523438 448 L 425 448 Z M 425 6" clip-rule="nonzero"/></clipPath><mask id="8d0afd3c89"><g filter="url(#6bcb0dff2f)"><rect x="-90" width="1080" fill="#000000" y="-47.249999" height="566.999983" fill-opacity="0.5"/></g></mask><clipPath id="07263f9120"><path d="M 1.082031 83 L 474.523438 83 L 474.523438 330 L 1.082031 330 Z M 1.082031 83" clip-rule="nonzero"/></clipPath><clipPath id="69902d8430"><path d="M 48 1.414062 L 428 1.414062 L 428 438.949219 L 48 438.949219 Z M 48 1.414062" clip-rule="nonzero"/></clipPath><clipPath id="1f912ce8aa"><path d="M 1.082031 1.414062 L 474.523438 1.414062 L 474.523438 438.949219 L 1.082031 438.949219 Z M 1.082031 1.414062" clip-rule="nonzero"/></clipPath><clipPath id="ad98f804fd"><rect x="0" width="475" y="0" height="442"/></clipPath><clipPath id="944953bbdf"><path d="M 0.476562 34 L 477 34 L 477 472 L 0.476562 472 Z M 0.476562 34" clip-rule="nonzero"/></clipPath><mask id="5a85bf3a20"><g filter="url(#6bcb0dff2f)"><rect x="-90" width="1080" fill="#000000" y="-47.249999" height="566.999983" fill-opacity="0.5"/></g></mask><clipPath id="b7dc447aac"><path d="M 0.476562 82 L 473.976562 82 L 473.976562 330 L 0.476562 330 Z M 0.476562 82" clip-rule="nonzero"/></clipPath><clipPath id="efa6a01e4c"><path d="M 47 0.660156 L 427 0.660156 L 427 438 L 47 438 Z M 47 0.660156" clip-rule="nonzero"/></clipPath><clipPath id="6248446f88"><path d="M 0.476562 0.660156 L 473.976562 0.660156 L 473.976562 438 L 0.476562 438 Z M 0.476562 0.660156" clip-rule="nonzero"/></clipPath><clipPath id="2bd1a1d47d"><rect x="0" width="477" y="0" height="438"/></clipPath></defs><g clip-path="url(#255e30a33d)"><path fill="#ffffff" d="M 0.476562 0 L 899.523438 0 L 899.523438 472 L 0.476562 472 Z M 0.476562 0" fill-opacity="1" fill-rule="nonzero"/><path fill="#e4f0f5" d="M 0.476562 0 L 899.523438 0 L 899.523438 472 L 0.476562 472 Z M 0.476562 0" fill-opacity="1" fill-rule="nonzero"/></g><g clip-path="url(#d9f97e994f)"><g mask="url(#8d0afd3c89)"><g transform="matrix(1, 0, 0, 1, 425, 6)"><g clip-path="url(#ad98f804fd)"><g clip-path="url(#07263f9120)"><path fill="#8ec1d6" d="M 1.273438 247.15625 L 1.09375 247.257812 L 1.09375 302.277344 L 48.742188 329.789062 L 96.1875 302.378906 L 96.367188 302.277344 L 96.367188 247.257812 L 48.742188 219.75 Z M 95.625 301.84375 L 48.742188 328.917969 L 1.863281 301.84375 L 1.863281 247.71875 L 48.742188 220.644531 L 95.625 247.71875 Z M 426.8125 110.605469 L 379.164062 138.117188 L 379.164062 193.136719 L 426.8125 220.644531 L 474.464844 193.136719 L 474.464844 138.117188 Z M 473.695312 192.675781 L 426.8125 219.75 L 379.933594 192.675781 L 379.933594 138.550781 L 426.8125 111.476562 L 473.695312 138.550781 Z M 237.597656 110.710938 L 237.421875 110.8125 L 237.421875 165.832031 L 284.300781 192.90625 L 237.597656 219.851562 L 237.421875 219.953125 L 237.421875 274.972656 L 285.070312 302.484375 L 332.691406 274.972656 L 332.691406 219.953125 L 285.8125 192.878906 L 332.691406 165.804688 L 332.691406 110.785156 L 285.042969 83.277344 Z M 331.925781 220.414062 L 331.925781 274.539062 L 285.042969 301.613281 L 238.164062 274.539062 L 238.164062 220.414062 L 285.042969 193.339844 Z M 331.925781 165.394531 L 285.042969 192.46875 L 238.164062 165.394531 L 238.164062 111.273438 L 285.042969 84.199219 L 331.925781 111.273438 Z M 331.925781 165.394531" fill-opacity="1" fill-rule="nonzero"/></g><g clip-path="url(#69902d8430)"><path fill="#8ec1d6" d="M 95.804688 356.300781 L 95.625 356.402344 L 95.625 411.421875 L 143.273438 438.929688 L 190.71875 411.523438 L 190.898438 411.421875 L 190.898438 356.402344 L 143.246094 328.890625 Z M 190.128906 410.984375 L 143.246094 438.058594 L 96.367188 410.984375 L 96.367188 356.863281 L 143.246094 329.789062 L 190.128906 356.863281 Z M 143.453125 220.542969 L 143.632812 220.441406 L 143.632812 165.421875 L 96.007812 137.886719 L 48.539062 165.292969 L 48.359375 165.394531 L 48.359375 220.414062 L 96.007812 247.925781 Z M 49.125 165.855469 L 96.007812 138.78125 L 142.863281 165.855469 L 142.863281 219.980469 L 96.007812 247.054688 L 49.125 219.980469 Z M 379.546875 192.46875 L 331.898438 219.980469 L 331.898438 274.972656 L 379.546875 302.484375 L 427.199219 274.972656 L 427.199219 219.953125 Z M 426.429688 274.539062 L 379.546875 301.613281 L 332.667969 274.539062 L 332.667969 220.414062 L 379.546875 193.339844 L 426.429688 220.414062 Z M 379.957031 83.96875 L 379.957031 28.949219 L 332.308594 1.464844 L 284.863281 28.871094 L 284.683594 28.972656 L 284.683594 83.992188 L 332.335938 111.503906 Z M 285.425781 29.410156 L 332.308594 2.335938 L 379.191406 29.410156 L 379.191406 83.53125 L 332.308594 110.605469 L 285.425781 83.53125 Z M 285.425781 29.410156" fill-opacity="1" fill-rule="nonzero"/></g><path fill="#8ec1d6" d="M 96.007812 247.054688 L 48.5625 274.460938 L 48.382812 274.5625 L 48.382812 329.582031 L 96.035156 357.09375 L 143.300781 329.8125 L 190.742188 302.40625 L 190.921875 302.304688 L 190.921875 247.285156 L 143.246094 219.75 Z M 96.007812 356.195312 L 49.125 329.121094 L 49.125 275 L 95.625 248.15625 L 95.625 302.277344 L 142.503906 329.351562 Z M 142.863281 328.6875 L 96.367188 301.84375 L 96.367188 248.15625 L 142.863281 275 Z M 190.128906 301.84375 L 143.632812 328.6875 L 143.632812 274.5625 L 96.777344 247.488281 L 143.273438 220.644531 L 190.15625 247.71875 L 190.15625 301.84375 Z M 379.546875 83.328125 L 332.285156 110.605469 L 284.839844 138.015625 L 284.660156 138.117188 L 284.660156 193.136719 L 332.308594 220.644531 L 379.957031 193.136719 L 427.222656 165.855469 L 427.222656 110.835938 Z M 332.308594 219.75 L 285.425781 192.675781 L 285.425781 138.550781 L 331.925781 111.707031 L 331.925781 165.832031 L 378.804688 192.90625 Z M 379.191406 192.238281 L 332.691406 165.394531 L 332.691406 111.707031 L 379.191406 138.550781 Z M 426.429688 165.394531 L 379.933594 192.238281 L 379.933594 138.117188 L 333.050781 111.042969 L 379.546875 84.199219 L 426.429688 111.273438 Z M 426.429688 165.394531" fill-opacity="1" fill-rule="nonzero"/><g clip-path="url(#1f912ce8aa)"><path fill="#035e7b" d="M 1.273438 356.300781 L 1.09375 356.402344 L 1.09375 411.421875 L 48.742188 438.929688 L 96.1875 411.523438 L 96.367188 411.421875 L 96.367188 356.402344 L 48.71875 328.890625 Z M 95.625 410.984375 L 48.742188 438.058594 L 1.863281 410.984375 L 1.863281 356.863281 L 48.742188 329.789062 L 95.625 356.863281 Z M 143.070312 165.292969 L 142.890625 165.394531 L 142.890625 220.414062 L 189.769531 247.488281 L 143.09375 274.4375 L 142.914062 274.539062 L 142.914062 329.558594 L 190.5625 357.066406 L 238.007812 329.660156 L 238.1875 329.558594 L 238.1875 274.539062 L 191.28125 247.488281 L 237.957031 220.542969 L 238.136719 220.441406 L 238.136719 165.421875 L 190.511719 137.886719 Z M 237.394531 275 L 237.394531 329.121094 L 190.511719 356.195312 L 143.632812 329.121094 L 143.632812 275 L 190.511719 247.925781 Z M 237.394531 219.980469 L 190.511719 247.054688 L 143.632812 219.980469 L 143.632812 165.855469 L 190.511719 138.78125 L 237.394531 165.855469 Z M 426.8125 1.464844 L 379.164062 28.972656 L 379.164062 83.992188 L 426.8125 111.503906 L 474.464844 83.992188 L 474.464844 28.972656 Z M 473.695312 83.53125 L 426.8125 110.605469 L 379.933594 83.53125 L 379.933594 29.410156 L 426.8125 2.335938 L 473.695312 29.410156 Z M 473.695312 83.53125" fill-opacity="1" fill-rule="nonzero"/></g></g></g></g></g><g clip-path="url(#944953bbdf)"><g mask="url(#5a85bf3a20)"><g transform="matrix(1, 0, 0, 1, 0, 34)"><g clip-path="url(#2bd1a1d47d)"><g clip-path="url(#b7dc447aac)"><path fill="#8ec1d6" d="M 0.664062 246.402344 L 0.484375 246.503906 L 0.484375 301.523438 L 48.136719 329.035156 L 95.578125 301.628906 L 95.757812 301.523438 L 95.757812 246.503906 L 48.136719 218.996094 Z M 95.015625 301.089844 L 48.136719 328.164062 L 1.253906 301.089844 L 1.253906 246.964844 L 48.136719 219.890625 L 95.015625 246.964844 Z M 426.207031 109.855469 L 378.558594 137.363281 L 378.558594 192.382812 L 426.207031 219.890625 L 473.855469 192.382812 L 473.855469 137.363281 Z M 473.085938 191.921875 L 426.207031 218.996094 L 379.324219 191.921875 L 379.324219 137.796875 L 426.207031 110.722656 L 473.085938 137.796875 Z M 236.992188 109.957031 L 236.8125 110.058594 L 236.8125 165.078125 L 283.695312 192.152344 L 236.992188 219.097656 L 236.8125 219.199219 L 236.8125 274.21875 L 284.460938 301.730469 L 332.085938 274.21875 L 332.085938 219.199219 L 285.203125 192.125 L 332.085938 165.050781 L 332.085938 110.03125 L 284.433594 82.523438 Z M 331.316406 219.660156 L 331.316406 273.785156 L 284.4375 300.859375 L 237.554688 273.785156 L 237.554688 219.660156 L 284.4375 192.585938 Z M 331.316406 164.640625 L 284.4375 191.71875 L 237.554688 164.640625 L 237.554688 110.519531 L 284.433594 83.445312 L 331.316406 110.519531 Z M 331.316406 164.640625" fill-opacity="1" fill-rule="nonzero"/></g><g clip-path="url(#efa6a01e4c)"><path fill="#8ec1d6" d="M 95.195312 355.546875 L 95.015625 355.648438 L 95.015625 410.667969 L 142.664062 438.175781 L 190.109375 410.769531 L 190.289062 410.667969 L 190.289062 355.648438 L 142.640625 328.140625 Z M 189.519531 410.230469 L 142.640625 437.308594 L 95.757812 410.230469 L 95.757812 356.109375 L 142.640625 329.035156 L 189.519531 356.109375 Z M 142.84375 219.789062 L 143.023438 219.6875 L 143.023438 164.667969 L 95.398438 137.132812 L 47.929688 164.539062 L 47.75 164.640625 L 47.75 219.660156 L 95.398438 247.171875 Z M 48.519531 165.101562 L 95.398438 138.027344 L 142.257812 165.101562 L 142.257812 219.226562 L 95.398438 246.300781 L 48.519531 219.226562 Z M 378.941406 191.71875 L 331.292969 219.226562 L 331.292969 274.21875 L 378.941406 301.730469 L 426.589844 274.21875 L 426.589844 219.199219 Z M 425.820312 273.785156 L 378.941406 300.859375 L 332.058594 273.785156 L 332.058594 219.660156 L 378.941406 192.585938 L 425.820312 219.660156 Z M 379.351562 83.214844 L 379.351562 28.195312 L 331.699219 0.710938 L 284.257812 28.117188 L 284.078125 28.21875 L 284.078125 83.238281 L 331.726562 110.75 Z M 284.820312 28.65625 L 331.699219 1.582031 L 378.582031 28.65625 L 378.582031 82.777344 L 331.699219 109.855469 L 284.820312 82.777344 Z M 284.820312 28.65625" fill-opacity="1" fill-rule="nonzero"/></g><path fill="#8ec1d6" d="M 95.398438 246.300781 L 47.957031 273.707031 L 47.777344 273.8125 L 47.777344 328.828125 L 95.425781 356.339844 L 142.691406 329.058594 L 190.136719 301.652344 L 190.316406 301.550781 L 190.316406 246.53125 L 142.640625 218.996094 Z M 95.398438 355.445312 L 48.519531 328.367188 L 48.519531 274.246094 L 95.015625 247.402344 L 95.015625 301.523438 L 141.898438 328.597656 Z M 142.257812 327.933594 L 95.757812 301.089844 L 95.757812 247.402344 L 142.257812 274.246094 Z M 189.519531 301.089844 L 143.023438 327.933594 L 143.023438 273.8125 L 96.167969 246.734375 L 142.664062 219.890625 L 189.546875 246.964844 L 189.546875 301.089844 Z M 378.941406 82.574219 L 331.675781 109.855469 L 284.230469 137.261719 L 284.050781 137.363281 L 284.050781 192.382812 L 331.699219 219.890625 L 379.351562 192.382812 L 426.613281 165.101562 L 426.613281 110.082031 Z M 331.699219 218.996094 L 284.820312 191.921875 L 284.820312 137.796875 L 331.316406 110.953125 L 331.316406 165.078125 L 378.199219 192.152344 Z M 378.582031 191.488281 L 332.085938 164.640625 L 332.085938 110.953125 L 378.582031 137.796875 Z M 425.820312 164.640625 L 379.324219 191.488281 L 379.324219 137.363281 L 332.441406 110.289062 L 378.941406 83.445312 L 425.820312 110.519531 Z M 425.820312 164.640625" fill-opacity="1" fill-rule="nonzero"/><g clip-path="url(#6248446f88)"><path fill="#035e7b" d="M 0.664062 355.546875 L 0.484375 355.648438 L 0.484375 410.667969 L 48.136719 438.175781 L 95.578125 410.769531 L 95.757812 410.667969 L 95.757812 355.648438 L 48.109375 328.140625 Z M 95.015625 410.230469 L 48.136719 437.308594 L 1.253906 410.230469 L 1.253906 356.109375 L 48.136719 329.035156 L 95.015625 356.109375 Z M 142.460938 164.539062 L 142.28125 164.640625 L 142.28125 219.660156 L 189.164062 246.734375 L 142.484375 273.683594 L 142.308594 273.785156 L 142.308594 328.804688 L 189.957031 356.3125 L 237.402344 328.90625 L 237.578125 328.804688 L 237.578125 273.785156 L 190.671875 246.734375 L 237.347656 219.789062 L 237.527344 219.6875 L 237.527344 164.667969 L 189.90625 137.132812 Z M 236.785156 274.246094 L 236.785156 328.367188 L 189.90625 355.445312 L 143.023438 328.367188 L 143.023438 274.246094 L 189.90625 247.171875 Z M 236.785156 219.226562 L 189.90625 246.300781 L 143.023438 219.226562 L 143.023438 165.101562 L 189.90625 138.027344 L 236.785156 165.101562 Z M 426.207031 0.710938 L 378.558594 28.21875 L 378.558594 83.238281 L 426.207031 110.75 L 473.855469 83.238281 L 473.855469 28.21875 Z M 473.085938 82.777344 L 426.207031 109.855469 L 379.324219 82.777344 L 379.324219 28.65625 L 426.207031 1.582031 L 473.085938 28.65625 Z M 473.085938 82.777344" fill-opacity="1" fill-rule="nonzero"/></g></g></g></g></g><path stroke-linecap="round" transform="matrix(1.467197, 0, 0, 1.467197, 852.324212, 424.800445)" fill="none" stroke-linejoin="round" d="M 11.999392 10.189192 L 11.999392 13.999071" stroke="#015f7b" stroke-width="1.5" stroke-opacity="1" stroke-miterlimit="4"/><path stroke-linecap="round" transform="matrix(1.467197, 0, 0, 1.467197, 852.324212, 424.800445)" fill="none" stroke-linejoin="round" d="M 11.999392 1.999683 L 11.999392 5.000196" stroke="#015f7b" stroke-width="1.5" stroke-opacity="1" stroke-miterlimit="4"/><path stroke-linecap="round" transform="matrix(1.467197, 0, 0, 1.467197, 852.324212, 424.800445)" fill="none" stroke-linejoin="round" d="M 18.998813 13.000675 L 18.998813 6.99965 C 18.998813 6.736074 18.948228 6.480484 18.847057 6.235544 C 18.745886 5.990605 18.602117 5.772289 18.413087 5.585921 C 18.22672 5.399554 18.011067 5.253123 17.766127 5.151952 C 17.521187 5.050781 17.265598 5.000196 16.999359 5.000196 L 6.999425 5.000196 C 6.735849 5.000196 6.480259 5.050781 6.23532 5.151952 C 5.99038 5.253123 5.772064 5.399554 5.585697 5.585921 C 5.399329 5.772289 5.252898 5.990605 5.151727 6.235544 C 5.050556 6.480484 4.999971 6.736074 4.999971 6.99965 L 4.999971 13.000675" stroke="#015f7b" stroke-width="1.5" stroke-opacity="1" stroke-miterlimit="4"/><path stroke-linecap="round" transform="matrix(1.467197, 0, 0, 1.467197, 852.324212, 424.800445)" fill="none" stroke-linejoin="round" d="M 19.379535 20.000096 C 20.476439 18.149736 21.016904 16.150281 21.00093 13.999071 L 12.811421 10.362247 C 12.270956 10.11997 11.730491 10.11997 11.187363 10.362247 L 3.000517 13.999071 C 2.976555 15.420787 3.208183 16.802567 3.692738 18.139086 C 4.17463 19.475605 4.882826 20.681668 5.809337 21.759935" stroke="#015f7b" stroke-width="1.5" stroke-opacity="1" stroke-miterlimit="4"/><path stroke-linecap="round" transform="matrix(1.467197, 0, 0, 1.467197, 852.324212, 424.800445)" fill="none" stroke-linejoin="round" d="M 1.999459 21.001154 C 2.601158 21.499021 3.200196 21.99955 4.499442 21.99955 C 6.999425 21.99955 6.999425 20.000096 9.499409 20.000096 C 10.801317 20.000096 11.400354 20.500625 11.999392 21.001154 C 12.601092 21.499021 13.200129 21.99955 14.499375 21.99955 C 16.999359 21.99955 16.999359 20.000096 19.499342 20.000096 C 20.80125 20.000096 21.400288 20.500625 21.999325 21.001154" stroke="#015f7b" stroke-width="1.5" stroke-opacity="1" stroke-miterlimit="4"/><path fill="#d3e5eb" d="M 215.429688 190.722656 L 684.558594 190.722656 C 699.367188 190.722656 711.367188 202.726562 711.367188 217.53125 L 711.367188 271.152344 C 711.367188 285.957031 699.367188 297.960938 684.558594 297.960938 L 215.429688 297.960938 C 200.621094 297.960938 188.621094 285.957031 188.621094 271.152344 L 188.621094 217.53125 C 188.621094 202.726562 200.621094 190.722656 215.429688 190.722656 Z M 215.429688 190.722656" fill-opacity="1" fill-rule="nonzero"/><g fill="#00475e" fill-opacity="1"><g transform="translate(214.192888, 266.443036)"><g><path d="M 1.15625 0 L 12.921875 -44.75 L 27.625 -44.75 L 39.390625 0 L 30.6875 0 L 28.265625 -9.84375 L 12.28125 -9.84375 L 9.84375 0 Z M 14.265625 -17.640625 L 26.28125 -17.640625 L 20.84375 -39.453125 L 19.6875 -39.453125 Z M 14.265625 -17.640625"/></g></g></g><g fill="#00475e" fill-opacity="1"><g transform="translate(254.723512, 266.443036)"><g><path d="M 4.46875 0 L 4.46875 -31.71875 L 12.40625 -31.71875 L 12.40625 -28.125 L 13.5625 -28.125 C 14.03125 -29.40625 14.804688 -30.34375 15.890625 -30.9375 C 16.972656 -31.539062 18.238281 -31.84375 19.6875 -31.84375 L 23.53125 -31.84375 L 23.53125 -24.6875 L 19.5625 -24.6875 C 17.519531 -24.6875 15.835938 -24.140625 14.515625 -23.046875 C 13.191406 -21.960938 12.53125 -20.289062 12.53125 -18.03125 L 12.53125 0 Z M 4.46875 0"/></g></g></g><g fill="#00475e" fill-opacity="1"><g transform="translate(280.03917, 266.443036)"><g><path d="M 4.46875 0 L 4.46875 -44.75 L 12.53125 -44.75 L 12.53125 -20.015625 L 13.6875 -20.015625 L 24.171875 -31.71875 L 34.65625 -31.71875 L 20.015625 -16.375 L 35.171875 0 L 24.8125 0 L 13.6875 -12.59375 L 12.53125 -12.59375 L 12.53125 0 Z M 4.46875 0"/></g></g></g><g fill="#00475e" fill-opacity="1"><g transform="translate(316.094798, 266.443036)"><g><path d="M 4.46875 0 L 4.46875 -44.75 L 12.53125 -44.75 L 12.53125 0 Z M 4.46875 0"/></g></g></g><g fill="#00475e" fill-opacity="1"><g transform="translate(333.099763, 266.443036)"><g><path d="M 18.921875 0.890625 C 15.765625 0.890625 12.984375 0.214844 10.578125 -1.125 C 8.171875 -2.46875 6.296875 -4.363281 4.953125 -6.8125 C 3.609375 -9.257812 2.9375 -12.144531 2.9375 -15.46875 L 2.9375 -16.234375 C 2.9375 -19.566406 3.597656 -22.457031 4.921875 -24.90625 C 6.242188 -27.351562 8.097656 -29.25 10.484375 -30.59375 C 12.867188 -31.9375 15.640625 -32.609375 18.796875 -32.609375 C 21.910156 -32.609375 24.617188 -31.914062 26.921875 -30.53125 C 29.222656 -29.144531 31.007812 -27.222656 32.28125 -24.765625 C 33.5625 -22.316406 34.203125 -19.472656 34.203125 -16.234375 L 34.203125 -13.484375 L 11.125 -13.484375 C 11.207031 -11.316406 12.015625 -9.550781 13.546875 -8.1875 C 15.085938 -6.820312 16.96875 -6.140625 19.1875 -6.140625 C 21.4375 -6.140625 23.09375 -6.628906 24.15625 -7.609375 C 25.226562 -8.585938 26.039062 -9.675781 26.59375 -10.875 L 33.1875 -7.421875 C 32.582031 -6.304688 31.71875 -5.097656 30.59375 -3.796875 C 29.46875 -2.503906 27.960938 -1.398438 26.078125 -0.484375 C 24.203125 0.429688 21.816406 0.890625 18.921875 0.890625 Z M 11.1875 -19.5 L 26.015625 -19.5 C 25.847656 -21.332031 25.113281 -22.800781 23.8125 -23.90625 C 22.507812 -25.019531 20.816406 -25.578125 18.734375 -25.578125 C 16.554688 -25.578125 14.828125 -25.019531 13.546875 -23.90625 C 12.273438 -22.800781 11.488281 -21.332031 11.1875 -19.5 Z M 11.1875 -19.5"/></g></g></g><g fill="#00475e" fill-opacity="1"><g transform="translate(367.940707, 266.443036)"><g><path d="M 1.65625 0 L 13.171875 -15.984375 L 1.796875 -31.71875 L 11.125 -31.71875 L 18.34375 -21.15625 L 19.5 -21.15625 L 26.71875 -31.71875 L 36.0625 -31.71875 L 24.6875 -15.984375 L 36.1875 0 L 26.71875 0 L 19.5 -10.671875 L 18.34375 -10.671875 L 11.125 0 Z M 1.65625 0"/></g></g></g><g fill="#00475e" fill-opacity="1"><g transform="translate(405.786333, 266.443036)"><g/></g></g><g fill="#00475e" fill-opacity="1"><g transform="translate(422.024154, 266.443036)"><g><path d="M 4.21875 0 L 4.21875 -44.75 L 22.640625 -44.75 C 25.453125 -44.75 27.929688 -44.1875 30.078125 -43.0625 C 32.234375 -41.9375 33.914062 -40.347656 35.125 -38.296875 C 36.34375 -36.253906 36.953125 -33.828125 36.953125 -31.015625 L 36.953125 -30.109375 C 36.953125 -27.335938 36.320312 -24.914062 35.0625 -22.84375 C 33.8125 -20.78125 32.109375 -19.1875 29.953125 -18.0625 C 27.796875 -16.9375 25.359375 -16.375 22.640625 -16.375 L 12.65625 -16.375 L 12.65625 0 Z M 12.65625 -24.046875 L 21.796875 -24.046875 C 23.804688 -24.046875 25.425781 -24.597656 26.65625 -25.703125 C 27.894531 -26.804688 28.515625 -28.320312 28.515625 -30.25 L 28.515625 -30.875 C 28.515625 -32.800781 27.894531 -34.316406 26.65625 -35.421875 C 25.425781 -36.523438 23.804688 -37.078125 21.796875 -37.078125 L 12.65625 -37.078125 Z M 12.65625 -24.046875"/></g></g></g><g fill="#00475e" fill-opacity="1"><g transform="translate(460.636924, 266.443036)"><g><path d="M 4.46875 0 L 4.46875 -44.75 L 12.53125 -44.75 L 12.53125 0 Z M 4.46875 0"/></g></g></g><g fill="#00475e" fill-opacity="1"><g transform="translate(477.6419, 266.443036)"><g><path d="M 14.328125 0.890625 C 12.066406 0.890625 10.039062 0.496094 8.25 -0.28125 C 6.457031 -1.070312 5.035156 -2.222656 3.984375 -3.734375 C 2.941406 -5.253906 2.421875 -7.097656 2.421875 -9.265625 C 2.421875 -11.441406 2.941406 -13.265625 3.984375 -14.734375 C 5.035156 -16.203125 6.488281 -17.3125 8.34375 -18.0625 C 10.195312 -18.8125 12.316406 -19.1875 14.703125 -19.1875 L 23.40625 -19.1875 L 23.40625 -20.96875 C 23.40625 -22.457031 22.9375 -23.679688 22 -24.640625 C 21.0625 -25.609375 19.566406 -26.09375 17.515625 -26.09375 C 15.515625 -26.09375 14.023438 -25.632812 13.046875 -24.71875 C 12.066406 -23.800781 11.425781 -22.613281 11.125 -21.15625 L 3.703125 -23.65625 C 4.210938 -25.28125 5.03125 -26.757812 6.15625 -28.09375 C 7.289062 -29.4375 8.804688 -30.523438 10.703125 -31.359375 C 12.609375 -32.191406 14.921875 -32.609375 17.640625 -32.609375 C 21.816406 -32.609375 25.117188 -31.5625 27.546875 -29.46875 C 29.984375 -27.382812 31.203125 -24.359375 31.203125 -20.390625 L 31.203125 -8.5625 C 31.203125 -7.289062 31.796875 -6.65625 32.984375 -6.65625 L 35.546875 -6.65625 L 35.546875 0 L 30.171875 0 C 28.597656 0 27.300781 -0.378906 26.28125 -1.140625 C 25.257812 -1.910156 24.75 -2.9375 24.75 -4.21875 L 24.75 -4.28125 L 23.53125 -4.28125 C 23.351562 -3.769531 22.96875 -3.097656 22.375 -2.265625 C 21.78125 -1.429688 20.84375 -0.695312 19.5625 -0.0625 C 18.28125 0.570312 16.535156 0.890625 14.328125 0.890625 Z M 15.734375 -5.625 C 17.992188 -5.625 19.835938 -6.253906 21.265625 -7.515625 C 22.691406 -8.773438 23.40625 -10.445312 23.40625 -12.53125 L 23.40625 -13.171875 L 15.28125 -13.171875 C 13.789062 -13.171875 12.617188 -12.847656 11.765625 -12.203125 C 10.910156 -11.566406 10.484375 -10.675781 10.484375 -9.53125 C 10.484375 -8.375 10.929688 -7.429688 11.828125 -6.703125 C 12.722656 -5.984375 14.023438 -5.625 15.734375 -5.625 Z M 15.734375 -5.625"/></g></g></g><g fill="#00475e" fill-opacity="1"><g transform="translate(512.291038, 266.443036)"><g><path d="M 16.625 0 C 14.53125 0 12.832031 -0.648438 11.53125 -1.953125 C 10.238281 -3.253906 9.59375 -4.988281 9.59375 -7.15625 L 9.59375 -25.0625 L 1.65625 -25.0625 L 1.65625 -31.71875 L 9.59375 -31.71875 L 9.59375 -41.5625 L 17.640625 -41.5625 L 17.640625 -31.71875 L 26.34375 -31.71875 L 26.34375 -25.0625 L 17.640625 -25.0625 L 17.640625 -8.5625 C 17.640625 -7.289062 18.238281 -6.65625 19.4375 -6.65625 L 25.578125 -6.65625 L 25.578125 0 Z M 16.625 0"/></g></g></g><g fill="#00475e" fill-opacity="1"><g transform="translate(539.908082, 266.443036)"><g><path d="M 9.71875 0 L 9.71875 -25.0625 L 1.65625 -25.0625 L 1.65625 -31.71875 L 9.71875 -31.71875 L 9.71875 -37.59375 C 9.71875 -39.769531 10.367188 -41.503906 11.671875 -42.796875 C 12.972656 -44.097656 14.664062 -44.75 16.75 -44.75 L 25.0625 -44.75 L 25.0625 -38.109375 L 19.5625 -38.109375 C 18.375 -38.109375 17.78125 -37.46875 17.78125 -36.1875 L 17.78125 -31.71875 L 26.09375 -31.71875 L 26.09375 -25.0625 L 17.78125 -25.0625 L 17.78125 0 Z M 9.71875 0"/></g></g></g><g fill="#00475e" fill-opacity="1"><g transform="translate(566.757995, 266.443036)"><g><path d="M 19.5625 0.890625 C 16.40625 0.890625 13.566406 0.253906 11.046875 -1.015625 C 8.535156 -2.296875 6.554688 -4.148438 5.109375 -6.578125 C 3.660156 -9.015625 2.9375 -11.9375 2.9375 -15.34375 L 2.9375 -16.375 C 2.9375 -19.78125 3.660156 -22.695312 5.109375 -25.125 C 6.554688 -27.550781 8.535156 -29.40625 11.046875 -30.6875 C 13.566406 -31.96875 16.40625 -32.609375 19.5625 -32.609375 C 22.71875 -32.609375 25.550781 -31.96875 28.0625 -30.6875 C 30.582031 -29.40625 32.566406 -27.550781 34.015625 -25.125 C 35.460938 -22.695312 36.1875 -19.78125 36.1875 -16.375 L 36.1875 -15.34375 C 36.1875 -11.9375 35.460938 -9.015625 34.015625 -6.578125 C 32.566406 -4.148438 30.582031 -2.296875 28.0625 -1.015625 C 25.550781 0.253906 22.71875 0.890625 19.5625 0.890625 Z M 19.5625 -6.265625 C 22.03125 -6.265625 24.070312 -7.0625 25.6875 -8.65625 C 27.3125 -10.257812 28.125 -12.550781 28.125 -15.53125 L 28.125 -16.171875 C 28.125 -19.160156 27.328125 -21.453125 25.734375 -23.046875 C 24.140625 -24.648438 22.082031 -25.453125 19.5625 -25.453125 C 17.09375 -25.453125 15.046875 -24.648438 13.421875 -23.046875 C 11.804688 -21.453125 11 -19.160156 11 -16.171875 L 11 -15.53125 C 11 -12.550781 11.804688 -10.257812 13.421875 -8.65625 C 15.046875 -7.0625 17.09375 -6.265625 19.5625 -6.265625 Z M 19.5625 -6.265625"/></g></g></g><g fill="#00475e" fill-opacity="1"><g transform="translate(605.882209, 266.443036)"><g><path d="M 4.46875 0 L 4.46875 -31.71875 L 12.40625 -31.71875 L 12.40625 -28.125 L 13.5625 -28.125 C 14.03125 -29.40625 14.804688 -30.34375 15.890625 -30.9375 C 16.972656 -31.539062 18.238281 -31.84375 19.6875 -31.84375 L 23.53125 -31.84375 L 23.53125 -24.6875 L 19.5625 -24.6875 C 17.519531 -24.6875 15.835938 -24.140625 14.515625 -23.046875 C 13.191406 -21.960938 12.53125 -20.289062 12.53125 -18.03125 L 12.53125 0 Z M 4.46875 0"/></g></g></g><g fill="#00475e" fill-opacity="1"><g transform="translate(631.197856, 266.443036)"><g><path d="M 4.46875 0 L 4.46875 -31.71875 L 12.40625 -31.71875 L 12.40625 -28.265625 L 13.5625 -28.265625 C 14.113281 -29.328125 15.023438 -30.25 16.296875 -31.03125 C 17.578125 -31.820312 19.265625 -32.21875 21.359375 -32.21875 C 23.617188 -32.21875 25.425781 -31.78125 26.78125 -30.90625 C 28.144531 -30.039062 29.191406 -28.90625 29.921875 -27.5 L 31.078125 -27.5 C 31.796875 -28.863281 32.816406 -29.988281 34.140625 -30.875 C 35.460938 -31.769531 37.335938 -32.21875 39.765625 -32.21875 C 41.722656 -32.21875 43.5 -31.800781 45.09375 -30.96875 C 46.695312 -30.144531 47.976562 -28.890625 48.9375 -27.203125 C 49.894531 -25.523438 50.375 -23.40625 50.375 -20.84375 L 50.375 0 L 42.328125 0 L 42.328125 -20.265625 C 42.328125 -22.015625 41.878906 -23.328125 40.984375 -24.203125 C 40.085938 -25.078125 38.832031 -25.515625 37.21875 -25.515625 C 35.382812 -25.515625 33.960938 -24.925781 32.953125 -23.75 C 31.953125 -22.582031 31.453125 -20.910156 31.453125 -18.734375 L 31.453125 0 L 23.40625 0 L 23.40625 -20.265625 C 23.40625 -22.015625 22.957031 -23.328125 22.0625 -24.203125 C 21.164062 -25.078125 19.90625 -25.515625 18.28125 -25.515625 C 16.445312 -25.515625 15.03125 -24.925781 14.03125 -23.75 C 13.03125 -22.582031 12.53125 -20.910156 12.53125 -18.734375 L 12.53125 0 Z M 4.46875 0"/></g></g></g></svg>